<svg t="1730131570504" class="icon" viewBox="0 0 1024 1024" version="1.1" xmlns="http://www.w3.org/2000/svg" p-id="14664" width="64" height="64"><path d="M371.852951 12.93051A221.063529 221.063529 0 0 1 432.289029 0c21.002039 31.342431 28.170039 69.130039 39.273412 104.548392 7.750275 39.052549 13.432471 78.647216 14.757647 118.462745 5.12 27.447216 1.927529 55.536941 3.212549 83.285334 1.445647 25.298824-1.907451 50.537412-1.044079 75.836235 0.803137 35.418353-3.955451 70.595765-3.413333 105.973961-5.340863 22.528-1.264941 46.100078-7.93098 68.407215-8.794353-4.256627-12.709647-13.713569-18.130824-21.24298a2415.35498 2415.35498 0 0 1-110.732549-181.187765c-33.330196-64.89349-67.945412-132.718431-70.836706-207.068862-2.529882-59.070745 39.152941-115.230118 94.428863-134.063687M578.861578 2.831059c4.979451-2.871216 10.701804 0.562196 15.942275 1.104314 27.38698 6.063686 56.480627 10.24 79.430274 27.788549 21.403608 18.371765 41.562353 40.036392 49.955137 67.604078 11.725804 33.310118 7.027451 69.330824 0.120471 103.102745-10.24 42.967843-29.173961 83.044392-48.188235 122.679216-6.224314 12.247843-14.697412 23.29098-20.198902 35.940392-10.842353 24.756706-25.640157 47.525647-39.735216 70.575686-22.026039 38.108863-46.84298 74.531137-71.03749 111.23451-3.614118 4.196392-7.93098 14.235608-14.034824 7.609726-3.754667-40.558431-7.489255-81.237333-8.272313-121.976471-5.742431-51.902745-2.610196-104.207059-3.072-156.330667 3.634196-34.514824 4.015686-69.270588 7.93098-103.80549 8.111686-40.678902 13.492706-82.120784 26.36298-121.615059C562.798833 32.527059 564.405107 12.649412 578.861578 2.81098M158.439304 133.561725c5.722353-2.208627 8.071529 4.618039 11.444705 7.830589 96.63749 125.088627 181.729882 259.353098 250.88 401.568627 5.38102 11.765961 12.328157 23.210667 13.57302 36.362039-12.448627-2.871216-23.351216-9.637647-34.635294-15.319843-64.552157-32.50698-127.136627-68.848941-188.074667-107.760941-22.829176-16.022588-46.160314-31.422745-66.359215-50.758274-40.076549-28.149961-68.045804-76.016941-64.411608-125.891765 4.216471-57.062902 40.096627-105.371608 77.583059-146.030432M844.940951 133.079843l8.232156 0.200784c18.030431 23.893333 39.353725 45.738667 52.364549 73.005177 13.854118 24.696471 21.12251 52.926745 23.029961 81.036549-1.766902 31.242039-11.384471 63.347451-32.12549 87.321098-13.412392 11.846275-24.074039 26.503529-38.349804 37.345882-75.213804 59.572706-159.764078 105.813333-244.655686 149.965804-12.488784 6.726275-24.475608 15.460392-38.952157 17.126902 2.349176-17.367843 13.251765-31.804235 20.018196-47.585882a2262.156549 2262.156549 0 0 1 200.523294-330.691765c16.082824-22.969725 34.213647-44.473725 49.914981-67.724549M13.914755 398.135216c2.007843-3.875137 1.40549-11.103373 6.746352-11.926589 10.24 1.967686 18.632784 8.533333 27.627922 13.392314 120.430431 65.234824 240.017569 132.397176 355.448471 206.265726 3.935373 2.148392 6.063686 6.164078 7.348705 10.340392-75.876392 1.064157-151.772863 0.903529-227.649254 0.501961-45.69851 0.602353-89.449412-20.660706-121.755608-52.083451C34.013264 534.226824 13.051382 496.077804 10.160088 454.535529c0.301176-18.81349-1.706667-38.088784 3.754667-56.400313M969.447304 394.340392c7.388863-4.417255 15.119059-9.336471 24.214588-8.192 1.525961 17.66902 5.059765 35.19749 5.662117 52.946824-2.851137 21.604392-2.610196 44.212706-11.966745 64.311215-8.151843 17.448157-16.102902 35.819922-30.398745 49.272471-15.219451 13.854118-27.868863 30.920784-46.581961 40.437961-21.283137 16.042667-48.328784 21.162667-74.290196 22.989804-79.731451 0.321255-159.523137 0.562196-239.254588-0.040157 1.766902-3.814902 3.895216-7.589647 7.870745-9.497098 118.261961-76.298039 241.302588-144.785569 364.744785-212.22902M183.517264 648.83451c42.787137-4.658196 85.995922-0.281098 128.783059-5.360941 30.539294-0.803137 61.239216-2.30902 91.718275-0.100393-7.890824 12.850196-22.487843 18.913882-34.233726 27.607844-32.446745 22.728784-66.319059 43.610353-101.898039 61.078588-35.137255 17.829647-79.711373 11.243922-109.82902-13.552941-24.696471-16.865882-41.803294-41.642667-57.665255-66.459608 27.587765-3.373176 55.476706-0.76298 83.124706-3.212549M604.060009 643.373176c30.378667-2.208627 60.998275-0.722824 91.457255 0.401569 41.562353 4.417255 83.466039 0.602353 124.988236 5.059765 29.073569 2.570039 58.368-0.140549 87.361255 3.212549-9.958902 21.323294-25.901176 39.152941-42.847373 55.255843-26.142118 27.186196-66.198588 40.839529-103.383843 32.828235-32.326275-10.179765-60.195137-29.95702-89.228549-46.802823-15.460392-9.657725-30.318431-20.21898-45.578039-30.197961-8.352627-5.642039-17.528471-10.842353-22.768942-19.757177" fill="#BE222A" p-id="14665"></path><path d="M963.624558 1011.571451h33.310118v-169.000157h-33.310118zM832.572637 938.084392h59.974274v-31.10149h-59.974274v-33.310118h86.638431v-31.10149h-119.948549v168.859608h124.385883v-33.330196h-91.075765zM699.292009 955.873882l-37.747451-113.302588H634.880402l-37.747451 115.511216-35.558902-115.511216h-37.747451l57.745568 166.590745h28.872785l37.767529-108.825098 37.747451 108.825098h28.892863l55.516862-166.590745h-33.310117zM432.750833 842.571294h31.10149l73.286275 166.590745h-35.538824l-13.312-33.310117h-77.743686l-15.560784 33.330196h-33.330197l71.097726-166.610824z m15.540706 43.530039l-24.435451 57.745569h51.079529l-26.644078-57.745569zM310.573578 949.207843c0 9.999059-9.537255 31.121569-39.976157 31.121569-30.45898 0-35.538824-33.330196-35.538823-33.330196v-104.407843h-33.330196v108.825098s1.66651 62.20298 71.097725 62.20298c69.411137 0 73.286275-64.411608 73.286275-64.411608v-106.61647h-35.538824v106.61647zM121.776088 909.231686H46.241029v-66.660392H10.702205v166.590745h33.330197v-66.620235h77.743686v66.620235h33.310117v-166.590745H121.776088z" fill="#BE222A" p-id="14666"></path></svg>