<svg t="1730131725877" class="icon" viewBox="0 0 4328 1024" version="1.1" xmlns="http://www.w3.org/2000/svg" p-id="17853" width="64" height="64"><path d="M1095.044316 529.996795V35.99359h153.99497v32.669831c0 17.963753 0.279229 32.66983 0.651535 32.66983 0.325768 0 10.052256-5.910354 21.593734-13.170316C1407.548463 2.811839 1605.568589-22.877258 1783.204974 21.752895c160.091477 40.162484 276.111259 135.612373 317.390661 260.939799 24.06026 73.251158 22.75719 154.693043-3.723058 225.524214-32.902522 88.143389-100.522555 158.974559-198.113202 207.560461-85.397634 42.442857-182.895204 63.710823-292.166945 63.710823-90.609914 0-175.123322-15.124921-249.537936-44.630153a584.287352 584.287352 0 0 1-90.284146-45.840146l-17.684524-11.541479V1024h-154.088046V529.996795z m586.055804 118.160541c86.654166-12.28609 153.855355-39.790178 204.302786-83.536105a232.458409 232.458409 0 0 0 74.786919-129.515866c4.141902-20.569893 4.141902-69.202333 0-89.772227-11.820708-59.243154-45.74707-110.993655-96.613345-147.293466-20.476817-14.659539-62.128524-35.508662-88.701847-44.444-75.019611-25.223715-166.001831-32.716369-249.305244-20.476817-144.640788 21.221428-242.464126 92.983363-268.665144 197.1359a244.18604 244.18604 0 0 0 5.770739 138.963125c34.76405 98.474873 137.194672 164.047225 281.975075 180.38214 29.086387 3.257675 108.992511 2.466526 136.450061-1.442684z m510.710426-118.160541V35.99359h154.088046v32.669831c0 17.963753 0.325768 32.66983 0.744612 32.66983 0.372306 0 8.842262-5.305357 18.847979-11.820708 22.989881-14.985307 68.457722-37.463267 97.590647-48.213596C2588.921177-5.146196 2742.543841-12.63885 2877.085835 21.10136c219.148478 55.054714 348.198962 205.792009 336.005948 392.503347-9.307644 142.546568-104.105998 259.683267-260.14865 321.160256-50.866274 20.057973-103.035619 32.716369-168.282203 40.860557-34.438283 4.281516-127.282032 4.281516-163.256076 0-101.779087-12.146475-191.132469-42.34978-260.800184-88.236465l-14.65954-9.633412V1024h-154.088046V529.996795z m589.8254 117.415929c120.068608-17.917215 204.582015-66.270425 249.026015-142.360415 25.828712-44.211309 35.508662-102.989081 25.921788-157.578413-19.918358-113.46018-119.603225-191.970157-272.248587-214.401579-100.801784-14.752616-214.541194 0-291.934253 37.835573-78.928821 38.626723-126.444344 96.334115-142.686183 173.215254-4.234978 20.197587-4.18844 72.134241 0.046538 91.912985 11.49494 53.286262 37.463267 97.357956 76.88114 130.44663 54.263564 45.607456 124.862044 72.785776 216.495799 83.303414 30.296381 3.490366 108.387514 2.140758 138.497743-2.326911zM458.680696 778.464351c-81.721114-7.213424-151.481906-23.315648-210.818136-48.678978C113.041336 672.171057 27.783317 574.906177 4.653822 452.184891 0.232691 428.729628-1.442685 375.908749 1.396147 350.685034 18.149906 203.531182 126.583958 86.952941 297.937684 31.898227c91.214911-29.319079 203.465098-38.905952 304.220344-25.968327 184.663657 23.734492 324.324855 109.318279 385.708767 236.414157 49.982048 103.501001 43.606312 229.200733-16.47453 325.860617-27.038706 43.513236-71.622321 88.422618-117.509005 118.486308-71.436168 46.770911-156.787263 75.857299-260.381341 88.794923-20.802584 2.559602-115.5544 4.653822-134.821223 2.978446z m109.27174-128.678178c80.371506-8.563032 147.991539-31.506375 198.857814-67.480419 41.55863-29.458693 74.461152-72.832314 89.260306-117.695158 8.609571-26.247556 10.331485-38.533646 10.331485-74.461152 0-35.741353-1.675376-47.934367-10.238408-74.228461-28.202161-86.328398-110.667887-150.551142-225.849982-175.914471-100.987937-22.245269-218.776172-14.519925-306.035334 20.057973-62.966212 24.944486-112.622492 65.339661-141.801957 115.228632-30.994454 53.053571-38.021726 125.327426-18.242982 187.642103 21.314505 67.061575 77.39306 123.233206 154.599967 154.739581 42.070551 17.172603 94.146819 29.132926 145.664628 33.460981 19.825282 1.628838 82.838032 0.837688 103.454463-1.396147z m3177.862351 128.724717c-3.257675-0.372306-14.519925-1.489223-25.130639-2.466526-85.025328-8.09765-174.425248-34.903665-239.9976-72.134241-88.608771-50.261278-150.31845-121.650907-178.474074-206.53662a346.663201 346.663201 0 0 1-9.168029-181.45252c19.918358-89.818765 74.600767-166.141445 159.533018-222.499229C3564.54842 19.00714 3729.200642-14.034996 3888.175202 5.976438c132.02893 16.660683 240.78875 64.967355 316.506434 140.545425 57.660855 57.567778 90.796067 125.001659 100.38294 204.302785a440.623867 440.623867 0 0 1-0.791149 84.048025c-20.756046 157.39226-145.525014 277.693559-336.610945 324.557546-57.893546 14.194157-94.286434 18.475673-162.418388 19.220285a1453.853992 1453.853992 0 0 1-59.429307-0.139614z m101.313705-127.980105c101.732549-9.307644 184.617119-42.861701 237.810304-96.147963 36.06712-36.06712 57.009319-75.81076 65.246584-123.791665 3.39729-19.825282 3.350752-61.058145-0.093076-81.581499-18.56875-110.435196-115.973244-190.527473-260.288264-213.936198-34.624436-5.584586-57.707393-7.446115-93.774514-7.446115-161.766853 0-287.32697 60.965068-335.633642 163.069923-14.38031 30.435996-21.035275 61.895833-21.035276 99.498714 0 49.656281 11.634555 89.027615 37.695959 128.259334 47.934367 72.041165 138.916587 118.067464 259.310961 131.237781 24.804871 2.652679 85.630325 3.164599 110.760964 0.837688z" fill="#006B33" p-id="17854"></path></svg>