<svg t="1730131874064" class="icon" viewBox="0 0 6655 1024" version="1.1" xmlns="http://www.w3.org/2000/svg" p-id="20363" width="64" height="64"><path d="M2455.95815 34.81376h386.118561l21.404237 944.957423h-237.544089V123.783378l-11.329712-0.809265-159.623418 857.705429h-240.137041l-159.507809-858.696366-7.877949 0.297281v857.556789H1807.637686l20.066472-945.287736c10.404837-0.776234 18.563551-1.899296 26.70575-1.899295 111.348276-0.115609 222.713067 0.297281 334.044827-0.445922 19.273723-0.132125 27.11864 4.343607 30.438278 25.351469 36.895884 234.356576 75.129532 468.481933 119.523505 703.499133l117.541632-726.241135z m3271.578159-0.297281c0.611078 9.281776 1.816718 19.05902 1.816717 28.852779 0.082578 292.821852-0.26425 585.643705 0.660625 878.482073 0.066062 25.681781-8.455995 31.131934-32.139387 30.818138a8669.211426 8669.211426 0 0 0-269.419226 0.132125c-26.524078 0.478953-38.729117-6.738371-46.706159-33.510183-70.472129-236.206325-142.612335-471.900665-214.323135-707.72713-3.435248-11.296681-7.349449-22.461236-16.730317-32.866074l12.76657 772.055451h-229.352344V34.582542c8.389932-0.693656 16.482584-1.899296 24.575235-1.932327 100.101142-0.132125 200.202284 0.445922 300.319941-0.545016 19.488426-0.198187 27.019546 5.995168 32.453183 24.723876 67.499318 233.200483 135.989573 466.070653 204.265126 699.023401 2.576436 8.769792 5.549247 17.457005 13.724476 25.731328l-12.419743-747.083841h230.508438z m-1061.111743 0.41289v29.959326c0 220.764225 0.5285 441.528449-0.561531 662.292674-0.165156 35.17826-3.451764 71.463066-12.601414 105.254014-25.434047 93.907786-94.452802 143.058256-184.842762 164.198243-84.758136 19.835254-170.771458 20.594972-256.07461 2.857201-141.522304-29.397795-210.177715-112.405275-211.845792-257.676623-1.602015-139.358759-0.545015-278.750549-0.594562-418.125823-0.049547-95.328129 0-190.672774 0-289.617824h239.212166v33.196386l0.016516 645.430231c0 10.289228 0.049547 20.578456 0.198187 30.8842 0.891843 62.148259 35.44251 98.449581 93.693084 98.482612 58.696495 0.016516 93.775661-36.086619 93.841724-98.003659 0.214703-224.513269 0.099094-449.010023 0.099093-673.506776V34.929369h239.476417z m1988.777317 436.094812c-0.148641 87.945649 0.908359 175.92433-0.957906 263.836949-2.807655 134.205887-68.605864 217.609742-198.286472 250.046409-91.248772 22.82458-183.703185 22.989736-274.968473-0.56153-130.258655-33.609276-195.313662-114.502758-198.187379-253.514689a10606.030619 10606.030619 0 0 1-0.082578-446.251915c3.517826-163.884447 96.781503-258.419827 259.922747-273.994052 78.052796-7.481574 155.048593-6.358512 230.557985 16.23485 115.857039 34.666276 178.038329 116.847976 180.862499 237.775307 0.511984 22.213502 0.066062 44.427004 0.066062 69.629833-76.384719 0-150.044362 0.363344-223.670973-0.825781-4.872106-0.066062-12.865664-11.494868-13.674929-18.332332-2.312186-19.422363-0.726687-39.274132-2.361733-58.812105-4.02981-47.928314-35.508572-76.351688-87.962165-80.678779-51.842515-4.261029-92.586537 21.371206-103.651999 66.227616-3.303123 13.542804-5.483184 27.729717-5.532731 41.61935-0.363344 148.756144-0.825781 297.528803 0.033031 446.284946 0.495468 77.193984 57.573434 118.664693 133.049794 98.912018 40.56235-10.61954 66.112007-38.861242 67.94524-82.280794 2.180061-51.247953 0.511984-102.661062 0.511984-158.896731h-94.518864V450.908162h329.238783c0.660625 7.498089 1.668077 13.807054 1.668077 20.116019z m-6101.214978 15.260429c110.324308 68.473739 145.634692 169.945677 128.425421 293.944914-17.902927 129.086046-76.401235 194.273178-203.521922 224.612363-99.192783 23.699907-198.682847 22.395174-296.455288-7.250355C64.480594 961.851741 2.447945 877.75423 0.234852 754.630321-0.227585 728.634743 0.16879 702.639165 0.16879 673.868964h252.424658c0 26.771812-0.115609 52.569202 0.033031 78.366593 0.280765 49.877157 18.447942 78.944639 57.540403 92.322287 44.063661 15.095272 96.104363 3.220545 118.251802-27.00303 24.525688-33.411089 26.738781-91.083616-0.049546-123.701956-18.67916-22.742002-41.454193-43.749864-66.194585-59.505761-51.198406-32.568793-105.716451-59.836073-157.327748-91.760756-39.637476-24.525688-78.994186-50.290047-114.783523-79.968608C4.116022 391.352855-7.593549 296.322007 14.487828 194.552788 35.066284 99.736642 99.923104 45.631488 190.428674 21.287472 297.416827-7.532276 405.214246-8.225932 510.996759 26.291703c99.671736 32.535761 149.730565 104.180499 151.200455 208.592216 0.313797 23.138376 0.033031 46.276753 0.033031 72.206269H427.411232c0-21.949252 0.660625-41.3551-0.132125-60.67837-1.783686-43.832442-23.567782-71.628222-63.205258-82.033059-40.760538-10.702118-83.899324 3.005842-102.760156 32.667886-21.734549 34.187323-20.512394 83.53598 8.224776 111.97587 22.956705 22.692455 50.124891 42.015724 77.871124 58.795589 43.931536 26.507562 90.175257 49.216532 134.982121 74.402845 24.393563 13.740992 47.779674 29.26567 71.595191 44.047145zM1445.037361 58.629277c54.237279 298.734443 109.828839 597.237667 164.957962 895.806953 1.46989 7.927495 1.123062 16.218334 1.717623 25.929515H1361.468349l-126.839922-862.181161-4.14542-0.545015c-2.031421 6.688824-4.954684 13.245523-5.978652 20.082988-41.371615 273.498583-82.44595 547.046713-124.329549 820.462718-1.288218 8.489026-10.437869 22.461236-16.119241 22.56033-79.374045 1.486405-158.781122 1.023968-241.557383 1.023968l175.478408-947.665984c10.239681-0.594562 18.497489-1.486405 26.755296-1.486406 122.611925-0.082578 245.207335 0.313797 367.802745-0.41289 20.049957-0.115609 28.489436 4.327091 32.50273 26.424984z m2253.506108 470.777603c48.539392 41.024787 75.525907 94.898723 75.955313 159.606903 0.247734 37.32529 1.387312 75.146048-3.649951 111.926322-13.625382 99.589158-74.022986 161.638323-167.567429 190.557165-106.145857 32.816527-214.075401 33.55973-320.733241 2.03142-117.657241-34.781885-176.287674-111.199635-183.488482-232.952748-5.334544-90.621179-5.334544-90.670726 85.716041-90.604663 50.537782 0.049547 101.075563 0.247734 151.613345 0.528499 2.625983 0.016516 5.251966 1.651561 11.560931 3.732529 0 26.32589-0.280765 51.528719 0.082578 76.682 0.710171 49.332142 20.14905 78.746452 59.62137 91.03407 44.59216 13.889632 94.105974 2.097483 115.691882-27.53153 23.006252-31.594371 25.913-91.034069 0.049547-121.455832a342.831134 342.831134 0 0 0-75.443329-65.79821c-50.306563-32.205449-104.428233-58.465277-155.147686-90.09268-38.729117-24.162345-78.201437-49.018345-111.216151-80.084216-144.230865-135.708808-88.226415-372.460148 101.059047-429.05916 100.778282-30.140997 203.406313-29.794169 304.663549-2.130515 109.44898 29.909779 161.555745 98.548674 165.370852 211.498965 0.759718 22.230018 0.115609 44.493067 0.115609 68.704958H3521.29789c0-18.827801 0.561531-36.367384-0.115609-53.840905-1.767171-44.641707-23.947642-74.815736-60.975651-84.064479-43.700317-10.900306-85.930744 3.204029-104.444748 34.914009-20.974831 35.888431-16.91199 85.435276 14.467678 113.561369 25.500109 22.857611 54.815326 42.048756 84.345246 59.670916 43.336974 25.846937 89.465086 47.036471 132.323106 73.560549 38.811695 24.013704 76.830641 50.207469 111.629042 79.605264z" fill="#000000" p-id="20364"></path></svg>